# xmcd
#
# Track frame offsets:
# 150
# 14394
# 34542
# 52269
# 71805
# 89225
# 106816
# 125545
# 137054
# 149658
# 164099
# 178693
# 192823
# 213270
# 232349
# 251713
# 270006
# 286970
# 303075
# 320523
# 334323
#
# Disc length: 4646 seconds
#
#
# Revision: 0
# Processed by: cddbd v1.5.1PL0 Copyright (c) Steve Scherf et al.
# Submitted via: FreeRIP 2.90 
#
DISCID=48122415
DTITLE=The Best RAP and HIP-HOP Album 2005
DYEAR=2005
DGENRE=Hip-Hop
TTITLE0=Ya Baba
TTITLE1=You Can Do It
TTITLE2=I Like That
TTITLE3=Still A G Thang
TTITLE4=Compton
TTITLE5=This Way
TTITLE6=See It In A Boy's Eyes
TTITLE7=Babycakes
TTITLE8=On
TTITLE9=Me Against Myself
TTITLE10=Shake (What Ya Mama Gave Ya)
TTITLE11=Stand Up Tall
TTITLE12=Hyphy
TTITLE13=So Many Rappers In Love
TTITLE14=One Call Away
TTITLE15=Learn Chinese
TTITLE16=Selfish
TTITLE17=King Of The Dancehall
TTITLE18=Get It On
TTITLE19=Badazz Strippa
TTITLE20=FURB
EXTD=
EXTT0=Memphis UG
EXTT1=Ice Cube
EXTT2=Houston
EXTT3=Snoop Dogg
EXTT4=Guerilla Black
EXTT5=Dilated Peoples
EXTT6=Jamelia
EXTT7=3 Of A Kind
EXTT8=Large Professor
EXTT9=Jay Sean
EXTT10=General Levy
EXTT11=Dizzee Rascal
EXTT12=E 40
EXTT13=Westside Connection
EXTT14=Chingy
EXTT15=Jin
EXTT16=Slum Village
EXTT17=Beenie Man
EXTT18=Dante Thomas
EXTT19=Jenita
EXTT20=Frankee
PLAYORDER=
